<?xml version="1.0" encoding="UTF-8" standalone="no"?>
<!-- Created with Inkscape (http://www.inkscape.org/) -->
<svg
   xmlns:dc="http://purl.org/dc/elements/1.1/"
   xmlns:cc="http://web.resource.org/cc/"
   xmlns:rdf="http://www.w3.org/1999/02/22-rdf-syntax-ns#"
   xmlns:svg="http://www.w3.org/2000/svg"
   xmlns="http://www.w3.org/2000/svg"
   xmlns:xlink="http://www.w3.org/1999/xlink"
   xmlns:sodipodi="http://sodipodi.sourceforge.net/DTD/sodipodi-0.dtd"
   xmlns:inkscape="http://www.inkscape.org/namespaces/inkscape"
   width="256"
   height="64"
   id="svg2541"
   sodipodi:version="0.32"
   inkscape:version="0.45.1"
   version="1.0"
   sodipodi:docbase="/home/rafa/documentos/trabajos/getdeb/logo"
   sodipodi:docname="logo2b.svg"
   inkscape:output_extension="org.inkscape.output.svg.inkscape">
  <defs
     id="defs2543">
    <linearGradient
       id="linearGradient3551">
      <stop
         style="stop-color:#000000;stop-opacity:1;"
         offset="0"
         id="stop3553" />
      <stop
         style="stop-color:#000000;stop-opacity:0.45360824;"
         offset="1"
         id="stop3555" />
    </linearGradient>
    <linearGradient
       inkscape:collect="always"
       xlink:href="#linearGradient3551"
       id="linearGradient2531"
       gradientUnits="userSpaceOnUse"
       gradientTransform="matrix(0.3966828,0,0,0.3966828,190.23771,397.28317)"
       x1="536.24969"
       y1="491.28348"
       x2="536.24969"
       y2="353.25113" />
    <linearGradient
       inkscape:collect="always"
       xlink:href="#linearGradient3184"
       id="linearGradient2539"
       gradientUnits="userSpaceOnUse"
       x1="160.98232"
       y1="806.58582"
       x2="240.37608"
       y2="837.87659" />
    <linearGradient
       id="linearGradient3184">
      <stop
         id="stop3186"
         offset="0"
         style="stop-color:#eec575;stop-opacity:1;" />
      <stop
         id="stop3188"
         offset="1"
         style="stop-color:#c78629;stop-opacity:1" />
    </linearGradient>
    <linearGradient
       inkscape:collect="always"
       xlink:href="#linearGradient3184"
       id="linearGradient2537"
       gradientUnits="userSpaceOnUse"
       x1="160.98232"
       y1="806.58582"
       x2="240.37608"
       y2="837.87659" />
    <linearGradient
       inkscape:collect="always"
       xlink:href="#linearGradient3164"
       id="linearGradient2535"
       gradientUnits="userSpaceOnUse"
       x1="250.35323"
       y1="799.53235"
       x2="332.79559"
       y2="839.84296" />
    <linearGradient
       id="linearGradient3164">
      <stop
         style="stop-color:#eec575;stop-opacity:1;"
         offset="0"
         id="stop3166" />
      <stop
         style="stop-color:#bb7e19;stop-opacity:1"
         offset="1"
         id="stop3168" />
    </linearGradient>
    <linearGradient
       inkscape:collect="always"
       xlink:href="#linearGradient3164"
       id="linearGradient2533"
       gradientUnits="userSpaceOnUse"
       x1="250.35323"
       y1="799.53235"
       x2="332.79559"
       y2="839.84296" />
    <linearGradient
       inkscape:collect="always"
       xlink:href="#linearGradient3551"
       id="linearGradient2627"
       gradientUnits="userSpaceOnUse"
       gradientTransform="matrix(0.3966828,0,0,0.3966828,190.23771,397.28317)"
       x1="536.24969"
       y1="491.28348"
       x2="536.24969"
       y2="353.25113" />
    <linearGradient
       inkscape:collect="always"
       xlink:href="#linearGradient3164"
       id="linearGradient2629"
       gradientUnits="userSpaceOnUse"
       x1="250.35323"
       y1="799.53235"
       x2="332.79559"
       y2="839.84296" />
    <linearGradient
       inkscape:collect="always"
       xlink:href="#linearGradient3164"
       id="linearGradient2631"
       gradientUnits="userSpaceOnUse"
       x1="250.35323"
       y1="799.53235"
       x2="332.79559"
       y2="839.84296" />
    <linearGradient
       inkscape:collect="always"
       xlink:href="#linearGradient3184"
       id="linearGradient2633"
       gradientUnits="userSpaceOnUse"
       x1="160.98232"
       y1="806.58582"
       x2="240.37608"
       y2="837.87659" />
    <linearGradient
       inkscape:collect="always"
       xlink:href="#linearGradient3184"
       id="linearGradient2635"
       gradientUnits="userSpaceOnUse"
       x1="160.98232"
       y1="806.58582"
       x2="240.37608"
       y2="837.87659" />
  </defs>
  <sodipodi:namedview
     id="base"
     pagecolor="#ffffff"
     bordercolor="#666666"
     borderopacity="1.0"
     inkscape:pageopacity="0.0"
     inkscape:pageshadow="2"
     inkscape:zoom="1.4"
     inkscape:cx="209.77201"
     inkscape:cy="47.102608"
     inkscape:document-units="px"
     inkscape:current-layer="g2594"
     width="256px"
     height="64px"
     inkscape:window-width="1280"
     inkscape:window-height="980"
     inkscape:window-x="0"
     inkscape:window-y="44" />
  <metadata
     id="metadata2546">
    <rdf:RDF>
      <cc:Work
         rdf:about="">
        <dc:format>image/svg+xml</dc:format>
        <dc:type
           rdf:resource="http://purl.org/dc/dcmitype/StillImage" />
      </cc:Work>
    </rdf:RDF>
  </metadata>
  <g
     inkscape:label="Capa 1"
     inkscape:groupmode="layer"
     id="layer1">
    <g
       id="g2594"
       transform="translate(-222,-533.21932)">
      <path
         id="path2469"
         style="font-size:162.77400208px;font-style:normal;font-variant:normal;font-weight:normal;font-stretch:normal;text-align:start;line-height:125%;writing-mode:lr-tb;text-anchor:start;fill:url(#linearGradient2627);fill-opacity:1;stroke:#000000;stroke-width:0.34102321;stroke-linecap:butt;stroke-linejoin:miter;stroke-miterlimit:4;stroke-dasharray:none;stroke-opacity:1;font-family:Ubuntu-Title"
         d="M 342.95993,576.92845 L 342.95993,563.75624 C 342.9599,558.5046 341.45327,554.54433 338.44005,551.87543 C 336.45989,550.32578 334.13539,549.55095 331.46653,549.55092 C 328.79764,549.55095 326.43008,550.23969 324.36387,551.61715 C 321.17843,553.6834 319.24134,557.04102 318.5526,561.69001 C 318.38041,562.72315 318.29432,563.79931 318.29432,564.9185 C 318.29432,570.42845 319.97313,574.60395 323.33075,577.44501 L 324.36387,578.21984 C 326.43008,579.59733 328.53936,580.28608 330.69169,580.28608 C 332.67181,580.11389 334.47976,579.68342 336.11554,578.99468 C 335.94334,582.09402 335.42678,583.98806 334.56587,584.67681 C 333.9632,585.10727 332.32744,585.3225 329.65858,585.32251 C 328.96982,585.23641 328.32412,585.10727 327.72149,584.93509 L 326.17182,584.16025 L 326.30096,584.54767 C 325.6122,583.42846 324.62214,582.86886 323.33075,582.86886 C 321.95326,582.86886 320.9632,583.47151 320.36055,584.67681 C 319.75789,585.8821 319.80094,587.00131 320.48969,588.03443 C 321.4367,589.67019 322.90028,590.78939 324.88043,591.39205 C 325.48306,591.47813 325.82743,591.52118 325.91354,591.52119 L 328.88374,592.16689 L 329.4003,592.16689 C 332.58572,592.16687 334.82413,591.95164 336.11554,591.52119 C 337.06254,591.09072 337.96652,590.57416 338.82747,589.97152 C 341.58242,587.47482 342.9599,583.12714 342.95993,576.92845 M 331.33739,556.3953 C 332.1983,556.39533 332.93009,556.61056 333.53276,557.041 C 335.34069,557.90195 336.24466,560.14036 336.24468,563.75624 L 336.24468,567.8887 C 336.24466,570.12713 335.59897,571.63375 334.30759,572.40858 L 333.6619,572.53772 C 332.71486,573.05428 331.72479,573.35561 330.69169,573.44169 C 327.07578,572.92514 325.22479,570.21322 325.1387,565.30592 L 325.1387,564.9185 C 325.13869,561.21652 326.12876,558.67679 328.10891,557.29928 C 329.05592,556.78274 329.91684,556.52446 330.69169,556.52444 C 330.86386,556.52446 330.993,556.48142 331.07911,556.3953 L 331.33739,556.3953 M 359.9931,573.18341 L 358.83085,573.18341 C 355.98977,572.75295 354.26791,571.07415 353.66527,568.14698 L 367.74146,568.14698 C 369.2911,568.14699 370.32422,567.45825 370.8408,566.08075 C 371.01296,565.6503 371.09905,565.21984 371.09908,564.78936 L 371.09908,563.49796 C 371.09905,557.47148 369.03282,553.16685 364.90039,550.58404 C 363.3507,549.72313 361.5858,549.29267 359.60568,549.29264 C 356.93679,549.29267 354.56924,550.02446 352.50302,551.48801 C 348.71493,553.98473 346.69175,558.16023 346.43347,564.01452 C 346.34738,564.53109 346.34738,565.0046 346.43347,565.43505 C 346.69175,571.0311 348.71493,575.2066 352.50302,577.96157 C 354.56924,579.42515 356.67851,580.15693 358.83085,580.15693 C 361.84408,580.24303 363.9964,580.15693 365.28781,579.89865 C 367.09574,579.46819 368.60236,578.7364 369.80769,577.70329 C 370.92686,576.92846 371.35733,575.89534 371.09908,574.60394 C 370.92686,573.22647 370.28117,572.27944 369.16199,571.76288 C 367.87057,571.33242 366.70832,571.54766 365.67523,572.40858 C 364.90037,572.92514 363.00633,573.18342 359.9931,573.18341 M 359.47654,556.26617 C 360.33745,556.26619 361.06924,556.43837 361.67191,556.78272 C 363.04937,557.47148 363.9103,558.89202 364.2547,561.04432 L 364.2547,561.3026 L 353.66527,561.3026 C 354.00964,559.40857 354.87056,557.98804 356.24806,557.041 C 357.19507,556.52446 358.056,556.26619 358.83085,556.26617 L 359.21826,556.26617 L 359.47654,556.26617 M 381.29089,537.41182 C 382.324,537.41187 383.18493,537.75624 383.87368,538.44494 C 384.56241,539.13372 384.86374,539.95161 384.77766,540.89859 L 384.77766,549.8092 L 389.03925,549.8092 C 390.41672,549.80923 391.44983,550.41188 392.1386,551.61715 C 392.82732,552.65029 392.82732,553.7695 392.1386,554.97477 C 391.44983,556.1801 390.41672,556.7397 389.03925,556.65358 L 384.77766,556.65358 L 384.77766,570.08407 C 384.77764,571.37547 384.99288,572.2364 385.42335,572.66685 C 385.68162,573.01123 386.11208,573.22647 386.71475,573.31255 C 387.40347,573.57084 388.2644,573.52779 389.29753,573.18341 C 390.675,572.75295 391.8803,573.05428 392.91343,574.08739 C 393.77434,574.94832 394.03261,576.06753 393.68827,577.44501 C 393.34387,578.7364 392.52599,579.55428 391.23462,579.89865 L 388.78098,580.28608 C 384.99288,580.54435 382.15182,579.51124 380.25778,577.18673 C 378.7081,575.37878 377.93327,573.01123 377.93327,570.08407 L 377.93327,556.65358 L 375.86704,556.65358 C 374.48956,556.7397 373.49949,556.1801 372.89684,554.97477 C 372.2081,553.7695 372.2081,552.65029 372.89684,551.61715 C 373.49949,550.41188 374.48956,549.80923 375.86704,549.8092 L 377.93327,549.8092 L 377.93327,540.89859 C 377.93327,539.52114 378.53592,538.44498 379.74122,537.6701 C 380.25777,537.49796 380.77433,537.41187 381.29089,537.41182 M 419.84732,566.20989 L 419.84732,541.286 C 419.84729,540.25293 419.50292,539.43505 418.8142,538.83236 C 418.21153,538.05757 417.39365,537.67015 416.36056,537.6701 C 414.89696,537.67015 413.86384,538.35889 413.26121,539.73633 C 413.08901,540.16684 413.00292,540.68339 413.00294,541.286 L 413.00294,551.10059 C 411.10887,550.23969 409.25788,549.80923 407.44994,549.8092 C 404.95324,549.98141 402.88701,550.62711 401.25126,551.74629 C 397.20489,554.41519 395.18171,558.84897 395.18171,565.04764 C 395.18171,570.4715 396.86052,574.647 400.21815,577.57415 L 401.25126,578.21984 C 403.14529,579.51124 405.08238,580.19998 407.06253,580.28608 L 407.06253,580.28608 L 407.19167,580.28608 L 407.44994,580.28608 L 407.44994,580.28608 C 409.51616,580.45826 411.58238,580.0278 413.64863,578.99468 C 416.57577,577.44501 418.46981,574.69004 419.33076,570.72976 C 419.67511,569.35229 419.84729,567.84567 419.84732,566.20989 M 413.00294,562.07743 L 413.00294,566.20989 C 413.08901,569.91189 412.22808,572.1503 410.42015,572.92513 C 409.6453,573.4417 408.82742,573.65693 407.9665,573.57083 L 407.44994,573.57083 C 406.50291,573.31256 405.64198,572.96819 404.86716,572.53772 C 403.0592,570.81587 402.11218,568.31918 402.0261,565.04764 C 402.02609,561.25957 402.9731,558.71983 404.86716,557.42842 C 405.90026,556.82579 406.76119,556.52446 407.44994,556.52444 C 408.65523,556.69665 409.6453,556.95493 410.42015,557.29928 C 411.62543,557.98804 412.40026,558.76288 412.74466,559.62379 C 412.91682,560.31255 413.00292,561.13043 413.00294,562.07743 M 436.88049,573.18341 L 435.71824,573.18341 C 432.87716,572.75295 431.15531,571.07415 430.55267,568.14698 L 444.62885,568.14698 C 446.1785,568.14699 447.21161,567.45825 447.72819,566.08075 C 447.90035,565.6503 447.98645,565.21984 447.98647,564.78936 L 447.98647,563.49796 C 447.98645,557.47148 445.92022,553.16685 441.78779,550.58404 C 440.2381,549.72313 438.4732,549.29267 436.49307,549.29264 C 433.82418,549.29267 431.45663,550.02446 429.39041,551.48801 C 425.60232,553.98473 423.57914,558.16023 423.32087,564.01452 C 423.23477,564.53109 423.23477,565.0046 423.32087,565.43505 C 423.57914,571.0311 425.60232,575.2066 429.39041,577.96157 C 431.45663,579.42515 433.56591,580.15693 435.71824,580.15693 C 438.73147,580.24303 440.88379,580.15693 442.1752,579.89865 C 443.98313,579.46819 445.48975,578.7364 446.69508,577.70329 C 447.81426,576.92846 448.24472,575.89534 447.98647,574.60394 C 447.81426,573.22647 447.16856,572.27944 446.04938,571.76288 C 444.75797,571.33242 443.59572,571.54766 442.56262,572.40858 C 441.78776,572.92514 439.89372,573.18342 436.88049,573.18341 M 436.36394,556.26617 C 437.22485,556.26619 437.95664,556.43837 438.55931,556.78272 C 439.93677,557.47148 440.7977,558.89202 441.14209,561.04432 L 441.14209,561.3026 L 430.55267,561.3026 C 430.89703,559.40857 431.75796,557.98804 433.13545,557.041 C 434.08246,556.52446 434.94339,556.26619 435.71824,556.26617 L 436.10566,556.26617 L 436.36394,556.26617 M 464.1187,580.28608 L 464.63525,580.28608 L 464.63525,580.28608 C 466.70146,580.19998 468.68159,579.51124 470.57566,578.21984 C 473.67498,576.15362 475.56902,572.75295 476.25779,568.01784 C 476.42995,567.07083 476.51604,566.03772 476.51607,564.9185 C 476.51604,559.49467 474.88028,555.40526 471.60877,552.65026 C 469.37034,550.67016 466.87365,549.68009 464.1187,549.68006 C 462.05245,549.93837 460.24451,550.36883 458.69484,550.97145 L 458.69484,541.286 C 458.69483,540.25293 458.35046,539.43505 457.66173,538.83236 C 456.97298,538.05757 456.1551,537.67015 455.20808,537.6701 C 453.7445,537.67015 452.75443,538.35889 452.23788,539.73633 C 451.9796,540.16684 451.85046,540.68339 451.85046,541.286 L 451.85046,566.20989 C 451.85046,572.32249 453.95973,576.58409 458.17829,578.99468 C 460.15841,580.0278 462.13854,580.45826 464.1187,580.28608 M 458.69484,566.20989 L 458.69484,561.94829 C 458.69483,559.88208 459.29748,558.46155 460.50279,557.6867 C 460.67497,557.60063 460.93325,557.47148 461.27763,557.29928 C 462.22464,556.78274 463.17166,556.52446 464.1187,556.52444 C 465.15179,556.69665 466.01272,556.99798 466.70148,557.42842 C 468.68159,558.71983 469.67166,561.21652 469.67168,564.9185 C 469.67166,568.6205 468.68159,571.16024 466.70148,572.53772 C 465.84054,573.14037 464.97961,573.48475 464.1187,573.57083 L 463.73127,573.57083 C 460.8902,573.57084 459.25444,571.93507 458.82398,568.66354 C 458.73788,567.88871 458.69483,567.07083 458.69484,566.20989" />
      <g
         id="g2471"
         transform="matrix(0.1213588,0,0,0.1213588,233.50739,498.61058)">
        <path
           id="path2473"
           d="M 361.28125,347.65625 C 301.32337,367.04501 242.1031,388.42609 182.28384,408.40839 C 148.5039,420.07995 114.52454,431.11126 81.21875,443.65625 C 74.951787,451.01606 79.650447,461.36282 78.228052,470.06248 C 78.649052,542.1392 77.346133,614.3519 78.90625,686.34375 C 83.460423,694.45634 94.149733,694.31563 101.43232,698.88094 C 186.52901,735.20057 271.29851,772.49317 356.6875,808 C 365.33023,807.17958 371.99328,800.55414 380.34753,798.49726 C 464.80353,761.94289 549.96852,726.36461 633.90625,689.03125 C 640.01325,681.52578 635.25859,670.90182 636.77658,662.09376 C 636.42962,590.30452 637.49322,518.41316 636.21875,446.6875 C 631.56166,438.33078 620.1281,439.09155 612.44791,434.9515 C 528.76989,405.9962 445.3331,375.7212 361.5,347.625 L 361.4375,347.625 L 361.28125,347.65625 z "
           style="color:#000000;fill:#7d400f;fill-opacity:1;fill-rule:nonzero;stroke:none;stroke-width:30;stroke-linecap:round;stroke-linejoin:round;marker:none;stroke-miterlimit:4;stroke-dashoffset:0;stroke-opacity:1;visibility:visible;display:inline;overflow:visible;enable-background:accumulate" />
        <g
           transform="matrix(2.953867,0,0,2.953867,-367.95766,-1810.2553)"
           id="g2475"
           style="opacity:1;color:#000000;fill:url(#linearGradient2629);fill-opacity:1;fill-rule:nonzero;stroke:none;stroke-width:0.23990972;stroke-linecap:round;stroke-linejoin:round;marker:none;marker-start:none;marker-mid:none;marker-end:none;stroke-miterlimit:4;stroke-dasharray:none;stroke-dashoffset:0;stroke-opacity:1;visibility:visible;display:inline;overflow:visible;enable-background:accumulate">
          <path
             style="color:#000000;fill:url(#linearGradient2631);fill-opacity:1;fill-rule:nonzero;stroke:none;stroke-width:0.23990972;stroke-linecap:round;stroke-linejoin:round;marker:none;marker-start:none;marker-mid:none;marker-end:none;stroke-miterlimit:4;stroke-dasharray:none;stroke-dashoffset:0;stroke-opacity:1;visibility:visible;display:inline;overflow:visible;enable-background:accumulate"
             sodipodi:nodetypes="ccccc"
             id="path2477"
             d="M 245.55725,797.66475 L 245.6,883.122 L 337.1,843.83121 L 337.1,765.102 L 245.55725,797.66475 z " />
        </g>
        <g
           transform="matrix(2.953867,0,0,2.953867,-367.95766,-1810.2553)"
           id="g2479"
           style="opacity:1;color:#000000;fill:#eec575;fill-opacity:1;fill-rule:nonzero;stroke:none;stroke-width:0.23990972;stroke-linecap:round;stroke-linejoin:round;marker:none;marker-start:none;marker-mid:none;marker-end:none;stroke-miterlimit:4;stroke-dasharray:none;stroke-dashoffset:0;stroke-opacity:1;visibility:visible;display:inline;overflow:visible;enable-background:accumulate">
          <path
             style="opacity:1;color:#000000;fill:#eec575;fill-opacity:1;fill-rule:nonzero;stroke:none;stroke-width:0.23990972;stroke-linecap:round;stroke-linejoin:round;marker:none;marker-start:none;marker-mid:none;marker-end:none;stroke-miterlimit:4;stroke-dasharray:none;stroke-dashoffset:0;stroke-opacity:1;visibility:visible;display:inline;overflow:visible;enable-background:accumulate"
             sodipodi:nodetypes="ccccc"
             id="path2481"
             d="M 154.07547,765.28336 L 245.53955,797.74291 L 337.1,765.102 L 246.92998,733.52157 L 154.07547,765.28336 z " />
        </g>
        <g
           transform="matrix(2.953867,0,0,2.953867,-367.95766,-1810.2553)"
           id="g2483"
           style="opacity:1;color:#000000;fill:#ffefc1;fill-opacity:1;fill-rule:nonzero;stroke:none;stroke-width:0.23990972;stroke-linecap:round;stroke-linejoin:round;marker:none;marker-start:none;marker-mid:none;marker-end:none;stroke-miterlimit:4;stroke-dasharray:none;stroke-dashoffset:0;stroke-opacity:1;visibility:visible;display:inline;overflow:visible;enable-background:accumulate">
          <path
             style="color:#000000;fill:#ffefc1;fill-opacity:1;fill-rule:nonzero;stroke:none;stroke-width:0.23990972;stroke-linecap:round;stroke-linejoin:round;marker:none;marker-start:none;marker-mid:none;marker-end:none;stroke-miterlimit:4;stroke-dasharray:none;stroke-dashoffset:0;stroke-opacity:1;visibility:visible;display:inline;overflow:visible;enable-background:accumulate"
             sodipodi:nodetypes="ccccc"
             id="path2485"
             d="M 181.66,775.082 L 215.92717,763.03439 L 242.06619,772.81961 L 209.94,785.142 L 181.66,775.082 z " />
        </g>
        <g
           transform="matrix(2.953867,0,0,2.953867,-367.95766,-1810.2553)"
           id="g2487"
           style="opacity:1;color:#000000;fill:url(#linearGradient2633);fill-opacity:1;fill-rule:nonzero;stroke:none;stroke-width:0.23990972;stroke-linecap:round;stroke-linejoin:round;marker:none;marker-start:none;marker-mid:none;marker-end:none;stroke-miterlimit:4;stroke-dasharray:none;stroke-dashoffset:0;stroke-opacity:1;visibility:visible;display:inline;overflow:visible;enable-background:accumulate">
          <path
             style="color:#000000;fill:url(#linearGradient2635);fill-opacity:1;fill-rule:nonzero;stroke:none;stroke-width:0.23990972;stroke-linecap:round;stroke-linejoin:round;marker:none;marker-start:none;marker-mid:none;marker-end:none;stroke-miterlimit:4;stroke-dasharray:none;stroke-dashoffset:0;stroke-opacity:1;visibility:visible;display:inline;overflow:visible;enable-background:accumulate"
             sodipodi:nodetypes="ccccc"
             id="path2489"
             d="M 245.6,797.812 L 245.6,883.312 L 154.1,844.02121 L 154.1,765.292 L 245.6,797.812 z " />
        </g>
        <g
           transform="matrix(2.953867,0,0,2.953867,-367.95766,-1810.2553)"
           id="g2491"
           style="opacity:1;color:#000000;fill:#ffefc1;fill-opacity:1;fill-rule:nonzero;stroke:none;stroke-width:0.67707855;stroke-linecap:round;stroke-linejoin:round;marker:none;marker-start:none;marker-mid:none;marker-end:none;stroke-miterlimit:4;stroke-dasharray:none;stroke-dashoffset:0;stroke-opacity:1;visibility:visible;display:inline;overflow:visible;enable-background:accumulate">
          <path
             style="color:#000000;fill:#ffefc1;fill-opacity:1;fill-rule:nonzero;stroke:none;stroke-width:0.67707855;stroke-linecap:round;stroke-linejoin:round;marker:none;marker-start:none;marker-mid:none;marker-end:none;stroke-miterlimit:4;stroke-dasharray:none;stroke-dashoffset:0;stroke-opacity:1;visibility:visible;display:inline;overflow:visible;enable-background:accumulate"
             sodipodi:nodetypes="ccccc"
             id="path2493"
             d="M 307.13472,775.82417 L 218.24443,743.27678 L 191.94637,752.35064 L 279.60439,785.60438 L 307.13472,775.82417 z " />
        </g>
        <g
           transform="matrix(2.953867,0,0,2.953867,-367.95766,-1810.2553)"
           id="g2495"
           style="opacity:1;color:#000000;fill:#ffefc1;fill-opacity:1;fill-rule:nonzero;stroke:none;stroke-width:0.23990972;stroke-linecap:round;stroke-linejoin:round;marker:none;marker-start:none;marker-mid:none;marker-end:none;stroke-miterlimit:4;stroke-dasharray:none;stroke-dashoffset:0;stroke-opacity:1;visibility:visible;display:inline;overflow:visible;enable-background:accumulate">
          <path
             style="color:#000000;fill:#ffefc1;fill-opacity:1;fill-rule:nonzero;stroke:none;stroke-width:0.23990972;stroke-linecap:round;stroke-linejoin:round;marker:none;marker-start:none;marker-mid:none;marker-end:none;stroke-miterlimit:4;stroke-dasharray:none;stroke-dashoffset:0;stroke-opacity:1;visibility:visible;display:inline;overflow:visible;enable-background:accumulate"
             sodipodi:nodetypes="ccccc"
             id="path2497"
             d="M 248.03326,752.35341 L 274.55185,743.23333 L 299.30867,751.90094 L 272.95612,761.49638 L 248.03326,752.35341 z " />
        </g>
        <g
           transform="matrix(2.953867,0,0,2.953867,-367.95766,-1810.2553)"
           id="g2499"
           style="opacity:1;color:#000000;fill:#ffe396;fill-opacity:1;fill-rule:nonzero;stroke:none;stroke-width:0.23990972;stroke-linecap:round;stroke-linejoin:round;marker:none;marker-start:none;marker-mid:none;marker-end:none;stroke-miterlimit:4;stroke-dasharray:none;stroke-dashoffset:0;stroke-opacity:1;visibility:visible;display:inline;overflow:visible;enable-background:accumulate">
          <path
             style="color:#000000;fill:#ffe396;fill-opacity:1;fill-rule:nonzero;stroke:none;stroke-width:0.23990972;stroke-linecap:round;stroke-linejoin:round;marker:none;marker-start:none;marker-mid:none;marker-end:none;stroke-miterlimit:4;stroke-dasharray:none;stroke-dashoffset:0;stroke-opacity:1;visibility:visible;display:inline;overflow:visible;enable-background:accumulate"
             sodipodi:nodetypes="cccccccccccccc"
             id="path2501"
             d="M 279.71,807.932 L 279.71,785.52973 L 307.1,775.782 L 307.1,804.232 C 306.36,803.202 304.77,802.352 303.2,801.682 L 302.93,801.572 L 298.87,793.082 L 298.59,800.242 L 298.08,800.152 C 295.31,799.692 292.67,799.902 290.19,800.802 L 290.03,800.862 L 289.27,794.282 L 288.52,800.882 C 285.64,802.562 282.12,804.122 279.71,807.932 z " />
        </g>
        <g
           transform="matrix(2.953867,0,0,2.953867,-367.95766,-1810.2553)"
           id="g2503"
           style="opacity:1;color:#000000;fill:#ffe396;fill-opacity:1;fill-rule:nonzero;stroke:none;stroke-width:0.23990972;stroke-linecap:round;stroke-linejoin:round;marker:none;marker-start:none;marker-mid:none;marker-end:none;stroke-miterlimit:4;stroke-dasharray:none;stroke-dashoffset:0;stroke-opacity:1;visibility:visible;display:inline;overflow:visible;enable-background:accumulate">
          <path
             style="color:#000000;fill:#ffe396;fill-opacity:1;fill-rule:nonzero;stroke:none;stroke-width:0.23990972;stroke-linecap:round;stroke-linejoin:round;marker:none;marker-start:none;marker-mid:none;marker-end:none;stroke-miterlimit:4;stroke-dasharray:none;stroke-dashoffset:0;stroke-opacity:1;visibility:visible;display:inline;overflow:visible;enable-background:accumulate"
             id="path2505"
             d="M 205.22,805.332 L 204.57,804.912 L 203.2,804.182 L 201.52,799.682 L 200.75,803.192 L 199.76,802.872 C 197.2,802.152 194.4,801.862 191.37,801.982 L 191.01,802.002 L 187.42,792.032 L 185.35,802.702 L 184.21,802.932 C 183.37,803.112 182.52,803.312 181.66,803.532 L 181.66,775.082 L 209.94,785.142 L 209.94,804.632 L 206.92,801.332 L 205.22,805.332 z " />
        </g>
        <path
           d="M 461.58422,753.99744 C 461.58839,753.79165 461.65339,753.57295 461.65339,753.36799 C 461.65339,751.337 461.44642,749.4466 461.05383,747.70073 C 460.66125,745.95483 460.09299,744.36523 459.34741,742.9269 C 458.60182,741.48856 457.68536,740.20722 456.62636,739.09887 C 455.56734,737.99053 454.36189,737.05113 453.02903,736.29522 C 451.69617,735.53932 450.23784,734.96243 448.67073,734.58142 C 447.10361,734.20042 445.42855,734.00659 443.66675,734.02292 C 441.90496,734.03925 440.0493,734.27215 438.13239,734.70828 C 436.2155,735.14438 434.23845,735.79156 432.20603,736.66991 C 430.17361,737.54825 428.19657,738.60992 426.27966,739.83065 C 424.36276,741.05138 422.50711,742.42239 420.74531,743.92884 C 418.98352,745.43531 417.30845,747.07693 415.74134,748.81246 C 414.17422,750.54798 412.71589,752.38537 411.38303,754.2933 C 410.05018,756.20126 408.84471,758.18258 407.78571,760.20626 C 406.7267,762.22994 405.81024,764.30342 405.06465,766.38619 C 404.31906,768.46897 403.75081,770.54973 403.35822,772.63495 C 402.96564,774.72016 402.75867,776.78944 402.75867,778.82043 C 402.75867,779.02539 402.82368,779.18791 402.82785,779.39008 L 461.58422,753.99744 z M 498.96414,737.84301 C 498.95772,737.4675 498.89496,737.12193 498.89496,736.74297 C 498.89496,734.29737 499.02423,731.80828 499.28698,729.28666 C 499.54972,726.76503 499.94609,724.20514 500.46303,721.62987 C 500.97996,719.05461 501.61443,716.46824 502.37699,713.86171 C 503.13955,711.2552 504.02923,708.64372 505.02887,706.02832 C 506.0285,703.41291 507.14438,700.79764 508.37254,698.19572 C 509.60069,695.59382 510.93683,693.0091 512.38494,690.44309 C 513.83306,687.87707 515.38349,685.33423 517.04302,682.82648 C 518.70254,680.31872 520.46134,677.82911 522.32371,675.402 C 522.7436,674.85359 523.00818,674.26447 523.08469,673.7126 C 523.16118,673.16075 523.05977,672.65114 522.76185,672.30711 L 499.47146,645.40765 C 499.30122,645.21203 499.06183,645.09021 498.80273,645.02791 C 498.54361,644.96561 498.26358,644.97023 497.94951,645.05075 C 497.63548,645.13124 497.30774,645.27667 497.00406,645.48239 C 496.70038,645.68812 496.42351,645.95398 496.17391,646.25624 C 493.79617,649.11515 491.48096,652.03907 489.25596,655.01091 C 487.03097,657.98273 484.88427,660.99811 482.82228,664.06359 C 480.7603,667.1291 478.78462,670.24142 476.89592,673.38131 C 475.00721,676.5212 473.20507,679.68987 471.49992,682.88489 C 469.79478,686.0799 468.19175,689.30046 466.68042,692.53134 C 465.16911,695.7622 463.74465,699.00401 462.43743,702.25147 C 461.13021,705.49895 459.93295,708.74756 458.84009,711.99236 C 457.74725,715.23715 456.75665,718.485 455.88844,721.70785 C 455.7527,722.21169 455.77892,722.66732 455.9115,723.03536 C 456.04408,723.4034 456.28247,723.69202 456.64942,723.82332 C 457.84432,724.25336 458.99141,724.76537 460.06226,725.36924 C 461.13312,725.9731 462.14351,726.66442 463.0831,727.43046 C 464.02268,728.19649 464.88778,729.03123 465.68885,729.94777 C 466.48993,730.86432 467.22421,731.86578 467.87954,732.92119 C 468.53486,733.97661 469.10667,735.0958 469.60902,736.27841 C 470.11137,737.46101 470.53517,738.6982 470.87731,739.99637 C 471.21945,741.29451 471.48665,742.63684 471.66134,744.03889 C 471.83603,745.44093 471.915,746.90858 471.915,748.40285 C 471.915,748.78232 471.85727,749.17899 471.84582,749.56269 L 498.96414,737.84301 z M 626.94601,610.19469 C 626.47914,610.36542 626.00178,610.5804 625.53937,610.73342 C 624.18991,611.17997 622.85699,611.55965 621.55002,611.85794 C 620.24304,612.15622 618.97981,612.36681 617.72209,612.52067 C 616.46437,612.67453 615.21114,612.75139 614.00946,612.76462 C 612.80778,612.77786 611.64324,612.71961 610.50437,612.59605 C 609.36551,612.47248 608.25302,612.30452 607.18376,612.04797 C 605.04525,611.53486 603.05373,610.75262 601.23433,609.73045 C 599.41494,608.70828 597.76861,607.42749 596.3226,605.92678 C 595.5996,605.17643 594.93588,604.38357 594.3164,603.51931 C 593.69691,602.65505 593.11915,601.72604 592.60997,600.75168 C 592.10079,599.77732 591.6646,598.74384 591.2725,597.66319 C 590.8804,596.58254 590.54916,595.4469 590.28093,594.26379 C 590.0127,593.08068 589.79589,591.84834 589.65832,590.56658 C 589.52075,589.28481 589.45093,587.95127 589.45078,586.57468 C 589.45312,586.56217 589.49691,585.71528 589.49691,585.67848 C 589.49691,585.12977 589.29984,584.70803 588.96652,584.45492 C 588.63321,584.20182 588.17318,584.13114 587.62905,584.27196 C 584.16429,585.16885 580.73791,586.1349 577.36745,587.23088 C 573.99698,588.32685 570.68187,589.54368 567.45174,590.93965 C 565.23419,591.89829 563.00697,592.93039 560.78746,594.02727 C 558.56793,595.12417 556.36017,596.29173 554.14624,597.52001 C 551.9323,598.74831 549.7058,600.02888 547.50501,601.38171 C 545.30422,602.73454 543.11306,604.15807 540.93297,605.62859 C 538.75288,607.09911 536.58193,608.63317 534.43011,610.21453 C 532.27828,611.7959 530.15856,613.41117 528.04255,615.09654 C 525.92654,616.78188 523.81986,618.52514 521.74722,620.30763 C 519.67459,622.09012 517.63502,623.92209 515.61332,625.79486 C 515.32574,626.0618 515.07583,626.36207 514.8754,626.69026 C 514.67497,627.01846 514.52355,627.36419 514.43727,627.70977 C 514.34982,628.05586 514.32322,628.39448 514.36808,628.68512 C 514.41295,628.97574 514.52065,629.22399 514.69092,629.42187 L 537.98131,656.29828 C 538.27692,656.63987 538.72846,656.78717 539.22655,656.72865 C 539.72463,656.67012 540.25968,656.42809 540.77155,655.99177 C 542.93073,654.14586 545.12333,652.39992 547.32054,650.76328 C 549.51774,649.12664 551.73442,647.58595 553.96176,646.16366 C 556.18908,644.74139 558.42261,643.42882 560.67215,642.22596 C 562.9217,641.0231 565.18788,639.9285 567.45174,638.95014 C 569.53354,638.05045 571.58796,637.25043 573.63176,636.55604 C 575.67556,635.86164 577.70027,635.28136 579.69649,634.78827 C 581.69271,634.29518 583.66071,633.89335 585.59979,633.59758 C 587.53889,633.30179 589.44623,633.11945 591.31863,633.01698 C 593.19103,632.91452 595.03378,632.90041 596.82992,632.98728 C 598.62606,633.07413 600.37722,633.2562 602.08755,633.52838 C 603.79788,633.80056 605.47658,634.16373 607.09152,634.61726 C 608.70648,635.07078 610.26264,635.6068 611.77267,636.23766 C 613.28268,636.86853 614.73544,637.5854 616.13097,638.3896 C 617.5265,639.19381 618.87189,640.08643 620.14337,641.05998 C 621.41484,642.03356 622.60284,643.09368 623.7407,644.2326 C 624.87856,645.37152 625.95132,646.59716 626.94601,647.89746 L 626.94601,610.19469 z M 626.94601,542.83702 C 625.41161,543.56828 623.88925,544.31988 622.42629,545.25151 C 620.55326,546.44427 618.72872,547.8049 617.00724,549.27682 C 615.28576,550.74872 613.64981,552.34571 612.11856,554.04142 C 610.58731,555.73713 609.17791,557.51606 607.87556,559.3802 C 606.57321,561.24434 605.38219,563.19379 604.34741,565.17102 C 603.31263,567.14825 602.42406,569.1708 601.69553,571.20575 C 600.967,573.2407 600.39576,575.29194 600.01217,577.32925 C 599.62858,579.36655 599.43567,581.38208 599.43567,583.3664 C 599.43567,585.35071 599.62858,587.19951 600.01217,588.90526 C 600.39576,590.61102 600.967,592.1685 601.69553,593.57375 C 602.42406,594.97901 603.31263,596.23355 604.34741,597.31638 C 605.38219,598.3992 606.57321,599.3192 607.87556,600.05768 C 609.17791,600.79616 610.58731,601.35689 612.11856,601.72908 C 613.64981,602.10126 615.28576,602.28423 617.00724,602.26822 C 618.72872,602.25219 620.55326,602.03582 622.42629,601.60965 C 623.88925,601.27677 625.41161,600.71255 626.94601,600.11756 L 626.94601,542.83702 z "
           style="opacity:0.45045046;color:#000000;fill:#e9e9e9;fill-opacity:1;fill-rule:nonzero;stroke:none;stroke-width:0.70866138;stroke-linecap:round;stroke-linejoin:round;marker:none;marker-start:none;marker-mid:none;marker-end:none;stroke-miterlimit:4;stroke-dashoffset:0;stroke-opacity:1;visibility:visible;display:inline;overflow:visible;enable-background:accumulate"
           id="path2507" />
      </g>
      <g
         id="g2509"
         transform="matrix(0.3410232,0,0,0.3410232,185.07637,453.44734)">
        <path
           d="M 160.65156,254.01862 C 160.42973,254.12865 160.2647,254.32742 160.19814,254.56522 C 160.1307,254.80303 160.16796,255.05769 160.29931,255.26709 L 169.28086,269.51673 C 169.50889,269.87877 169.96588,270.02251 170.36072,269.85658 C 173.69177,268.44839 177.15235,267.73409 180.64489,267.73409 C 193.49165,267.73409 204.69775,277.25869 206.71199,289.88984 C 206.7794,290.31398 207.14499,290.62543 207.5736,290.62543 L 224.50383,290.65116 C 224.75052,290.65116 224.98566,290.54735 225.15159,290.36456 C 225.31752,290.18176 225.39738,289.93952 225.37432,289.69285 C 224.46214,280.32086 220.4727,271.28075 214.14159,264.23978 C 213.85586,263.92034 213.37937,263.85646 213.01824,264.08982 C 210.46539,265.73848 207.56559,266.61162 204.63563,266.61162 C 196.08797,266.61162 189.13486,259.69932 189.13396,251.20402 C 189.13486,251.19959 189.15085,250.87925 189.15085,250.86506 C 189.15085,250.4418 188.84649,250.07711 188.42676,250.00434 C 185.75414,249.54116 183.13651,249.21639 180.64489,249.21639 C 173.80269,249.21728 166.88949,250.93604 160.65156,254.01862 z M 153.15185,258.67001 C 145.8154,264.32053 140.30065,272.271 137.6218,281.05734 C 137.51709,281.40075 137.63246,281.77343 137.91551,281.99703 C 141.60236,284.91724 143.80294,289.41244 143.80294,294.02302 C 143.80294,298.63358 141.60146,303.13057 137.91373,306.05078 C 137.63246,306.2735 137.51532,306.64529 137.62002,306.98957 C 140.27757,315.70227 145.73022,323.60749 152.97616,329.24559 C 153.17048,329.39732 153.41895,329.45944 153.66205,329.41684 C 153.90432,329.37514 154.11814,329.23227 154.25036,329.02552 L 163.30912,314.80873 C 163.5407,314.44581 163.47328,313.96842 163.14939,313.68359 C 157.4625,308.67994 154.20157,301.51386 154.20157,294.0239 C 154.20157,286.47805 157.49711,279.28002 163.24345,274.2746 C 163.56734,273.99154 163.63831,273.51505 163.40851,273.15035 L 154.42427,258.89539 C 154.29295,258.68776 154.08,258.544 153.83774,258.50142 C 153.59551,258.45883 153.34439,258.52005 153.15185,258.67001 z M 139.84545,294.23242 C 139.84545,300.49901 134.75595,305.58492 128.48496,305.58492 C 122.21397,305.58492 117.12447,300.49901 117.12447,294.23242 C 117.12447,287.96585 122.21397,282.87992 128.48496,282.87992 C 134.75595,282.87992 139.84545,287.96585 139.84545,294.23242 z M 215.18333,251.62639 C 215.18333,257.74896 210.2103,262.71801 204.08282,262.71801 C 197.95535,262.71801 192.98232,257.74896 192.98232,251.62639 C 192.98232,245.50381 197.95535,240.53476 204.08282,240.53476 C 210.2103,240.53476 215.18333,245.50381 215.18333,251.62639 z M 224.4861,297.53064 L 207.55761,297.58564 C 207.13081,297.58653 206.7661,297.89799 206.69777,298.31858 C 204.65604,310.85568 193.45618,320.31017 180.64489,320.31017 C 177.11153,320.31017 173.61192,319.57901 170.2436,318.13621 C 169.84964,317.96851 169.39355,318.1096 169.16195,318.46896 L 160.10852,332.67956 C 159.97632,332.88808 159.93815,333.14274 160.0038,333.38143 C 160.06948,333.61924 160.23363,333.81888 160.45459,333.92892 C 166.74131,337.07627 173.72371,338.73913 180.64489,338.73913 C 183.21194,338.73913 185.88546,338.49689 188.59092,338.01684 C 188.9707,337.9503 189.26175,337.64062 189.30699,337.25818 C 190.20852,329.47186 196.79873,323.59951 204.63563,323.59951 C 207.06513,323.59951 209.53724,324.21886 211.78395,325.39014 C 212.12558,325.56849 212.54175,325.50283 212.81237,325.22687 C 219.8977,318.00134 224.35475,308.5078 225.35924,298.4925 C 225.38407,298.2467 225.30332,298.00181 225.13651,297.81813 C 224.9697,297.63445 224.73276,297.52974 224.4861,297.53064 z M 215.87455,338.82609 C 215.87455,345.06035 210.78506,350.12003 204.51406,350.12003 C 198.24307,350.12003 193.15358,345.06035 193.15358,338.82609 C 193.15358,332.59184 198.24307,327.53216 204.51406,327.53216 C 210.78506,327.53216 215.87455,332.59184 215.87455,338.82609 z "
           style="fill:#ffffff;fill-opacity:1;stroke:#ffffff;stroke-width:10;stroke-linecap:round;stroke-linejoin:round;stroke-miterlimit:4;stroke-dasharray:none;stroke-opacity:1"
           id="path2511" />
        <g
           transform="matrix(0.7633853,0,0,0.7633853,-487.09737,110.20707)"
           id="g2513">
          <path
             style="fill:#f13b00;stroke:none"
             d="M 848.52158,188.35976 C 848.23099,188.50389 848.01481,188.76426 847.92763,189.07577 C 847.83928,189.38729 847.88809,189.72089 848.06015,189.9952 L 859.82557,208.66157 C 860.12428,209.13582 860.72292,209.32412 861.24014,209.10676 C 865.60367,207.26209 870.13686,206.32639 874.71193,206.32639 C 891.54061,206.32639 906.22008,218.80318 908.85864,235.34941 C 908.94696,235.90502 909.42586,236.31301 909.98731,236.31301 L 932.16515,236.34671 C 932.4883,236.34671 932.79632,236.21072 933.01368,235.97127 C 933.23105,235.73182 933.33565,235.4145 933.30545,235.09136 C 932.11054,222.81449 926.88456,210.97235 918.59109,201.74901 C 918.2168,201.33056 917.59261,201.24687 917.11955,201.55257 C 913.77543,203.71224 909.97682,204.856 906.13871,204.856 C 894.94167,204.856 885.83341,195.8012 885.83223,184.67275 C 885.83341,184.66694 885.85435,184.24732 885.85435,184.22873 C 885.85435,183.67428 885.45565,183.19655 884.90583,183.10123 C 881.40482,182.49448 877.97585,182.06905 874.71193,182.06905 C 865.74896,182.07022 856.69299,184.32171 848.52158,188.35976 z "
             id="path2515" />
          <path
             style="fill:#f97a00;stroke:none"
             d="M 838.69731,194.45286 C 829.08689,201.85478 821.86282,212.26954 818.35365,223.77925 C 818.21648,224.22909 818.36761,224.71728 818.73839,225.0102 C 823.568,228.83553 826.45066,234.72405 826.45066,240.76369 C 826.45066,246.80332 823.56682,252.69417 818.73606,256.51951 C 818.36761,256.81126 818.21416,257.29829 818.35132,257.74928 C 821.83258,269.16252 828.97531,279.518 838.46716,286.90365 C 838.72171,287.10241 839.04719,287.18378 839.36565,287.12799 C 839.683,287.07335 839.9631,286.88621 840.13631,286.61538 L 852.00287,267.99202 C 852.30623,267.51661 852.21791,266.89126 851.79363,266.51814 C 844.34406,259.96359 840.07239,250.57635 840.07239,240.76485 C 840.07239,230.88013 844.3894,221.45104 851.91684,214.89416 C 852.34112,214.52337 852.43409,213.89918 852.13306,213.42145 L 840.36412,194.7481 C 840.1921,194.47611 839.91314,194.2878 839.59579,194.23201 C 839.27848,194.17622 838.94953,194.25642 838.69731,194.45286 z "
             id="path2517" />
          <ellipse
             style="fill:#f83011;fill-rule:evenodd;stroke:none"
             cx="12.803"
             cy="62.015999"
             rx="12.803"
             ry="12.794"
             id="ellipse2519"
             sodipodi:cx="12.803"
             sodipodi:cy="62.015999"
             sodipodi:rx="12.803"
             sodipodi:ry="12.794"
             transform="matrix(1.162362,0,0,1.162362,791.50308,168.95296)" />
          <ellipse
             style="fill:#e00916;fill-rule:evenodd;stroke:none"
             cx="98"
             cy="14"
             rx="12.51"
             ry="12.5"
             id="ellipse2521"
             sodipodi:cx="98"
             sodipodi:cy="14"
             sodipodi:rx="12.51"
             sodipodi:ry="12.5"
             transform="matrix(1.162362,0,0,1.162362,791.50308,168.95296)" />
          <path
             style="fill:#d40000;stroke:none"
             d="M 932.14193,245.35851 L 909.96637,245.43057 C 909.40728,245.43173 908.92954,245.83972 908.84003,246.39068 C 906.16544,262.8137 891.49413,275.19866 874.71193,275.19866 C 870.0834,275.19866 865.49906,274.24088 861.08672,272.35088 C 860.57065,272.13119 859.97319,272.31601 859.6698,272.78676 L 847.81022,291.40199 C 847.63705,291.67515 847.58705,292.00874 847.67305,292.32142 C 847.75908,292.63293 847.97412,292.89446 848.26356,293.0386 C 856.49888,297.16149 865.6455,299.33976 874.71193,299.33976 C 878.07466,299.33976 881.57685,299.02244 885.12087,298.3936 C 885.61837,298.30642 885.99964,297.90076 886.0589,297.39978 C 887.23985,287.20005 895.87272,279.50754 906.13871,279.50754 C 909.32125,279.50754 912.55959,280.31887 915.50269,281.85319 C 915.9502,282.08682 916.49537,282.00081 916.84987,281.63931 C 926.13133,272.1742 931.96987,259.73809 933.28569,246.61851 C 933.31822,246.29653 933.21244,245.97572 932.99393,245.73511 C 932.77542,245.4945 932.46504,245.35734 932.14193,245.35851 z "
             id="path2523" />
          <ellipse
             style="color:#000000;fill:#f97a00;fill-opacity:1;fill-rule:nonzero;stroke:none;stroke-width:2.90017819;stroke-linecap:butt;stroke-linejoin:miter;marker:none;marker-start:none;marker-mid:none;marker-end:none;stroke-miterlimit:4;stroke-dasharray:none;stroke-dashoffset:0;stroke-opacity:1;visibility:visible;display:inline;overflow:visible;enable-background:accumulate"
             cx="98.486"
             cy="112.272"
             rx="12.803"
             ry="12.728"
             id="ellipse2525"
             sodipodi:cx="98.486"
             sodipodi:cy="112.272"
             sodipodi:rx="12.803"
             sodipodi:ry="12.728"
             transform="matrix(1.162362,0,0,1.162362,791.50308,168.95296)" />
        </g>
      </g>
      <path
         style="font-size:13.14445496px;font-style:normal;font-variant:normal;font-weight:normal;font-stretch:normal;text-align:center;line-height:125%;writing-mode:lr-tb;text-anchor:middle;fill:#000000;fill-opacity:1;stroke:none;stroke-width:1px;stroke-linecap:butt;stroke-linejoin:miter;stroke-opacity:1;font-family:Ubuntu-Title"
         d="M 377.05228,584.73679 C 377.56053,584.73679 377.99868,584.83319 378.36672,585.02596 C 378.9626,585.35896 379.21673,585.73577 379.1291,586.15639 C 379.09405,586.41928 378.92755,586.59454 378.62961,586.68217 C 378.36672,586.75227 378.14765,586.69093 377.97239,586.49814 C 377.72702,586.1301 377.33269,585.98113 376.78939,586.05123 C 376.75434,586.05124 376.72805,586.06 376.71052,586.07752 C 376.41258,586.11258 376.21103,586.26155 376.10588,586.52443 C 376.0533,586.66464 376.07082,586.81362 376.15846,586.97134 C 376.36877,587.11156 376.71052,587.1729 377.18372,587.15537 C 377.46414,587.15537 377.67445,587.1729 377.81466,587.20794 C 378.37548,587.26053 378.83116,587.54094 379.18168,588.04919 C 379.40951,588.36466 379.51467,588.70641 379.49715,589.07446 C 379.51467,589.63529 379.28683,590.09973 378.81364,590.46777 C 378.62085,590.60798 378.4193,590.71313 378.20899,590.78324 C 377.28011,591.08118 376.4564,591.08118 375.73783,590.78324 C 375.15948,590.50282 374.81772,590.16983 374.71257,589.78426 C 374.64246,589.48632 374.75638,589.24972 375.05432,589.07446 C 375.33474,588.8992 375.58886,588.90796 375.8167,589.10075 C 375.85175,589.11827 375.87804,589.1358 375.89557,589.15332 C 376.19351,589.5389 376.71928,589.67034 377.4729,589.54766 C 377.77084,589.53013 377.97239,589.41621 378.07755,589.2059 C 378.14765,589.08322 378.14765,588.95178 378.07755,588.81157 C 377.91981,588.63631 377.6394,588.54868 377.2363,588.54868 C 376.36,588.58373 375.72031,588.40847 375.31721,588.0229 C 374.87906,587.65486 374.67751,587.1729 374.71257,586.57701 C 374.71257,586.19144 374.82648,585.84969 375.05432,585.55174 C 375.45742,584.99092 376.10588,584.71927 376.9997,584.73679 L 377.05228,584.73679 M 383.07326,584.78936 C 382.54748,584.78937 382.07428,584.93834 381.65366,585.23628 C 380.86499,585.76206 380.47066,586.64712 380.47066,587.89146 C 380.45313,589.0657 380.77736,589.93323 381.44335,590.49406 C 381.91655,590.84458 382.45985,591.01984 383.07326,591.01984 C 383.61656,591.01984 384.10729,590.87963 384.54544,590.59921 C 385.3341,590.07344 385.72844,589.17085 385.72844,587.89146 C 385.72844,586.6997 385.3341,585.80587 384.54544,585.20999 C 384.12481,584.92958 383.63409,584.78937 383.07326,584.78936 M 381.83768,587.99661 L 381.83768,587.89146 C 381.83768,587.13784 382.03047,586.63836 382.41604,586.39299 C 382.62635,586.25279 382.84542,586.18268 383.07326,586.18268 C 383.93203,586.18268 384.36141,586.75227 384.36142,587.89146 C 384.36141,589.0657 383.93203,589.65281 383.07326,589.65281 C 382.24954,589.65281 381.83768,589.10075 381.83768,587.99661 M 389.9665,582.3445 L 390.33455,582.39707 C 390.59743,582.46719 390.77269,582.63368 390.86032,582.89656 C 390.93042,583.17699 390.86032,583.41359 390.65001,583.60636 C 390.45722,583.79916 390.22939,583.85173 389.9665,583.7641 L 389.51959,583.71152 C 389.36185,583.71153 389.23917,583.7641 389.15154,583.86925 C 389.06391,583.95689 389.0201,584.13215 389.0201,584.39503 L 389.0201,585.05225 L 390.15052,585.05225 C 390.41341,585.03473 390.61496,585.14865 390.75517,585.39401 C 390.89537,585.63938 390.89537,585.86722 390.75517,586.07752 C 390.61496,586.32289 390.41341,586.44557 390.15052,586.44557 L 389.0201,586.44557 L 389.0201,590.33632 C 389.0201,590.61674 388.91494,590.82705 388.70463,590.96726 C 388.45927,591.10747 388.2139,591.10747 387.96854,590.96726 C 387.7407,590.82705 387.62679,590.61674 387.62679,590.33632 L 387.62679,586.44557 L 387.46905,586.44557 C 387.18864,586.44557 386.97833,586.32289 386.83812,586.07752 C 386.71544,585.86722 386.71544,585.63938 386.83812,585.39401 C 386.97833,585.14865 387.18864,585.03473 387.46905,585.05225 L 387.62679,585.05225 L 387.62679,584.39503 C 387.62679,583.79916 387.77576,583.32596 388.0737,582.97543 C 388.31906,582.65997 388.66082,582.45842 389.09897,582.37079 C 389.37938,582.31822 389.66856,582.30945 389.9665,582.3445 M 393.31341,582.29192 C 393.52372,582.29193 393.69898,582.36203 393.83919,582.50223 C 393.97939,582.64245 394.04073,582.80894 394.02321,583.00172 L 394.02321,584.81565 L 394.89074,584.81565 C 395.17115,584.81566 395.38147,584.93834 395.52168,585.1837 C 395.66188,585.39402 395.66188,585.62185 395.52168,585.86721 C 395.38147,586.11258 395.17115,586.2265 394.89074,586.20897 L 394.02321,586.20897 L 394.02321,588.94301 C 394.02321,589.2059 394.06702,589.38116 394.15465,589.46879 C 394.20723,589.5389 394.29486,589.58271 394.41754,589.60024 C 394.55775,589.65281 394.73301,589.64405 394.94332,589.57395 C 395.22373,589.48632 395.4691,589.54766 395.67941,589.75797 C 395.85467,589.93323 395.90724,590.16107 395.83714,590.44148 C 395.76704,590.70437 395.60054,590.87087 395.33765,590.94097 L 394.83817,591.01984 C 394.06702,591.07241 393.48867,590.8621 393.1031,590.3889 C 392.78763,590.02086 392.6299,589.5389 392.6299,588.94301 L 392.6299,586.20897 L 392.20927,586.20897 C 391.92886,586.2265 391.72731,586.11258 391.60463,585.86721 C 391.46442,585.62185 391.46442,585.39402 391.60463,585.1837 C 391.72731,584.93834 391.92886,584.81566 392.20927,584.81565 L 392.6299,584.81565 L 392.6299,583.00172 C 392.6299,582.72131 392.75258,582.50224 392.99794,582.3445 C 393.1031,582.30945 393.20825,582.29193 393.31341,582.29192 M 397.04253,584.78936 C 397.30542,584.77185 397.50697,584.88576 397.64718,585.13112 C 397.69975,585.21876 397.72604,585.31515 397.72604,585.4203 L 397.72604,588.12806 L 397.75233,588.9693 C 397.76986,589.09198 397.80491,589.2059 397.85749,589.31106 C 397.96264,589.57395 398.27811,589.6791 398.80389,589.62652 C 399.0843,589.609 399.25956,589.39869 399.32967,588.99559 C 399.34719,588.97807 399.35595,588.96054 399.35596,588.94301 L 399.38224,587.76001 L 399.38224,587.70743 C 399.43482,587.46207 399.60131,587.29558 399.88173,587.20794 C 400.10957,587.15537 400.31111,587.19919 400.48638,587.33939 C 400.67916,587.4796 400.76679,587.74249 400.74927,588.12806 L 400.77556,588.9693 C 400.79308,589.09198 400.82813,589.2059 400.88071,589.31106 C 400.96834,589.5389 401.2838,589.64405 401.82711,589.62652 C 402.10752,589.609 402.28278,589.39869 402.35289,588.99559 C 402.37041,588.96054 402.37917,588.93425 402.37918,588.91672 L 402.37918,585.68319 C 402.34412,585.2801 402.45804,585.00845 402.72094,584.86823 C 402.96629,584.7105 403.22042,584.72803 403.48331,584.92081 C 403.65857,585.0435 403.75496,585.20123 403.77249,585.39401 L 403.77249,588.4961 C 403.80754,589.24972 403.64104,589.8456 403.273,590.28375 C 402.85237,590.792 402.28278,591.04613 401.56422,591.04613 C 400.96834,591.0286 400.46885,590.83581 400.06576,590.46777 C 399.5575,590.92344 398.95286,591.10747 398.25182,591.01984 C 397.95388,590.98478 397.68223,590.89715 397.43686,590.75695 C 396.89356,590.47653 396.5518,590.02086 396.4116,589.38992 C 396.37655,589.26724 396.35902,589.14456 396.35902,589.02188 L 396.35902,585.60432 C 396.30644,585.30639 396.40283,585.06979 396.6482,584.89452 C 396.77088,584.8069 396.90232,584.77185 397.04253,584.78936 M 409.48971,590.23117 L 409.48971,587.5497 C 409.43713,586.72599 409.14795,586.07753 408.62218,585.60432 C 408.48197,585.48164 408.333,585.37649 408.17527,585.28885 C 407.84227,585.1136 407.50928,585.02597 407.17629,585.02596 C 406.38762,585.02597 405.74792,585.35896 405.2572,586.02494 C 404.71389,586.83114 404.56492,587.81259 404.81029,588.9693 C 404.96802,589.70539 405.33607,590.25746 405.91442,590.6255 C 406.05463,590.71313 406.2036,590.792 406.36133,590.8621 C 407.00979,591.07241 407.60567,591.03736 408.14898,590.75695 C 408.25413,591.03736 408.46444,591.18633 408.77991,591.20386 C 408.99022,591.22138 409.16548,591.15128 409.30569,590.99355 C 409.42837,590.83581 409.48971,590.58169 409.48971,590.23117 M 407.12371,586.44557 C 407.47423,586.44557 407.74588,586.6033 407.93867,586.91877 C 408.06135,587.14661 408.11392,587.66362 408.0964,588.46981 C 408.04382,589.04817 407.84227,589.40745 407.49176,589.54766 C 407.36907,589.58271 407.20258,589.59147 406.99227,589.57395 C 406.64175,589.52137 406.39638,589.32858 406.25618,588.99559 C 406.22112,588.92549 406.2036,588.85539 406.2036,588.78528 C 406.06339,588.24198 406.06339,587.70744 406.2036,587.18166 C 406.2737,586.83114 406.48401,586.6033 406.83453,586.49814 C 406.93969,586.4631 407.03608,586.44557 407.12371,586.44557 M 413.21247,584.76308 C 414.17639,584.76308 414.90372,585.19247 415.39445,586.05123 C 415.53465,586.31413 415.53465,586.56825 415.39445,586.81361 C 415.23671,587.04145 415.01764,587.14661 414.73723,587.12908 C 414.45681,587.09403 414.26402,586.94506 414.15887,586.68217 C 414.03619,586.43681 413.87845,586.28784 413.68567,586.23525 C 413.54546,586.20021 413.38773,586.18268 413.21247,586.18268 C 412.75679,586.18268 412.45009,586.30536 412.29236,586.55072 C 412.27483,586.58578 412.24854,586.62959 412.21349,586.68217 C 412.12586,586.87496 412.07328,587.0765 412.05576,587.28681 L 412.05576,590.31004 C 412.05576,590.57293 411.9506,590.77447 411.74029,590.91468 C 411.49493,591.05489 411.25833,591.05489 411.03049,590.91468 C 410.80265,590.77447 410.68873,590.57293 410.68873,590.31004 L 410.68873,587.28681 C 410.77636,586.07753 411.3109,585.29762 412.29236,584.9471 C 412.57277,584.82442 412.87947,584.76308 413.21247,584.76308 M 419.27494,589.57395 L 419.03834,589.57395 C 418.45998,589.48632 418.10946,589.14456 417.98678,588.54868 L 420.85227,588.54868 C 421.16774,588.54868 421.37805,588.40847 421.48321,588.12806 C 421.51825,588.04043 421.53578,587.9528 421.53579,587.86517 L 421.53579,587.60228 C 421.53578,586.37547 421.11516,585.49917 420.27392,584.97339 C 419.95845,584.79813 419.59917,584.7105 419.19607,584.7105 C 418.65277,584.7105 418.1708,584.85947 417.75018,585.15741 C 416.97904,585.66567 416.56718,586.51567 416.5146,587.70743 C 416.49708,587.81259 416.49708,587.90899 416.5146,587.99661 C 416.56718,589.1358 416.97904,589.98581 417.75018,590.54664 C 418.1708,590.84458 418.60019,590.99355 419.03834,590.99355 C 419.65174,591.01107 420.08989,590.99355 420.35278,590.94097 C 420.72082,590.85334 421.02753,590.70437 421.2729,590.49406 C 421.50073,590.33633 421.58836,590.12601 421.53579,589.86312 C 421.50073,589.58271 421.36928,589.38993 421.14145,589.28477 C 420.87856,589.19714 420.64196,589.24096 420.43165,589.41621 C 420.27391,589.52137 419.88834,589.57395 419.27494,589.57395 M 419.16978,586.1301 C 419.34504,586.1301 419.49401,586.16516 419.61669,586.23525 C 419.89711,586.37547 420.07237,586.66464 420.14247,587.10279 L 420.14247,587.15537 L 417.98678,587.15537 C 418.05688,586.7698 418.23214,586.48062 418.51256,586.28783 C 418.70534,586.18268 418.8806,586.1301 419.03834,586.1301 L 419.11721,586.1301 L 419.16978,586.1301 M 432.26947,585.47288 L 432.26947,590.6255 C 432.26946,591.67706 432.04162,592.42191 431.58595,592.86006 C 431.2179,593.24563 430.61326,593.43841 429.77202,593.43842 C 428.96582,593.54357 428.22974,593.3946 427.56375,592.9915 C 427.33591,592.8513 427.22199,592.64975 427.222,592.38686 C 427.22199,592.10644 427.34468,591.9049 427.59004,591.78221 C 427.81788,591.64201 428.04571,591.65077 428.27355,591.8085 C 428.55396,591.96624 429.02716,592.0451 429.69315,592.0451 L 429.74573,592.0451 C 430.2014,592.0451 430.49058,591.98376 430.61326,591.86108 C 430.77099,591.72087 430.84986,591.35283 430.84986,590.75695 C 430.35913,591.00231 429.83336,591.07241 429.27253,590.96726 C 428.15087,590.66932 427.48488,589.86313 427.27457,588.54868 C 427.23952,588.33837 427.22199,588.1193 427.222,587.89146 L 427.222,585.47288 C 427.22199,585.15742 427.3622,584.93834 427.64262,584.81565 C 427.71272,584.78061 427.80035,584.76308 427.90551,584.76308 C 428.11582,584.76308 428.29108,584.83319 428.43128,584.97339 C 428.57149,585.1136 428.64159,585.2801 428.6416,585.47288 L 428.6416,587.89146 C 428.64159,588.64507 428.83438,589.16209 429.21995,589.4425 C 429.39521,589.56518 429.57047,589.62653 429.74573,589.62652 C 429.97356,589.609 430.16635,589.54766 430.32409,589.4425 C 430.56945,589.33735 430.72718,589.19714 430.79729,589.02188 C 430.83233,588.88167 430.84986,588.70641 430.84986,588.4961 L 430.84986,585.47288 C 430.84986,585.20999 430.97254,584.99968 431.21791,584.84194 C 431.46327,584.71927 431.6911,584.71927 431.90142,584.84194 C 432.14678,584.99968 432.26946,585.20999 432.26947,585.47288 M 435.88214,584.78936 C 435.35636,584.78937 434.88316,584.93834 434.46254,585.23628 C 433.67387,585.76206 433.27954,586.64712 433.27954,587.89146 C 433.26201,589.0657 433.58624,589.93323 434.25223,590.49406 C 434.72542,590.84458 435.26873,591.01984 435.88214,591.01984 C 436.42544,591.01984 436.91616,590.87963 437.35432,590.59921 C 438.14298,590.07344 438.53731,589.17085 438.53732,587.89146 C 438.53731,586.6997 438.14298,585.80587 437.35432,585.20999 C 436.93369,584.92958 436.44296,584.78937 435.88214,584.78936 M 434.64656,587.99661 L 434.64656,587.89146 C 434.64656,587.13784 434.83934,586.63836 435.22492,586.39299 C 435.43522,586.25279 435.6543,586.18268 435.88214,586.18268 C 436.74091,586.18268 437.17029,586.75227 437.17029,587.89146 C 437.17029,589.0657 436.74091,589.65281 435.88214,589.65281 C 435.05842,589.65281 434.64656,589.10075 434.64656,587.99661 M 440.3568,584.76308 C 440.54958,584.76308 440.72484,584.83319 440.88258,584.97339 C 441.02278,585.1136 441.09288,585.28886 441.09289,585.49917 L 441.09289,588.4961 C 441.09288,588.74147 441.1367,588.94301 441.22433,589.10075 C 441.34701,589.32858 441.49598,589.47756 441.67124,589.54766 C 441.82897,589.60024 442.00423,589.62653 442.19702,589.62652 C 442.63517,589.62653 442.93311,589.49508 443.09084,589.23219 L 443.16971,589.10075 C 443.25734,588.90796 443.30115,588.70641 443.30115,588.4961 L 443.30115,585.49917 C 443.30115,585.21876 443.42383,585.00845 443.6692,584.86823 C 443.91456,584.72803 444.14239,584.72803 444.35271,584.86823 C 444.59807,585.00845 444.72075,585.21876 444.72076,585.49917 L 444.72076,588.4961 C 444.61559,589.70539 444.07229,590.49406 443.09084,590.8621 C 442.81042,590.96726 442.51248,591.01984 442.19702,591.01984 C 441.35577,591.01984 440.69855,590.70437 440.22535,590.07344 C 440.13772,589.96828 440.05885,589.85436 439.98875,589.73168 C 439.77844,589.32858 439.67328,588.91673 439.67329,588.4961 L 439.67329,585.49917 C 439.67328,585.1837 439.80473,584.96463 440.06762,584.84194 C 440.15525,584.78937 440.25164,584.76308 440.3568,584.76308 M 450.87832,584.78936 C 451.14121,584.77185 451.34275,584.88576 451.48296,585.13112 C 451.53554,585.21876 451.56183,585.31515 451.56183,585.4203 L 451.56183,588.12806 L 451.58812,588.9693 C 451.60564,589.09198 451.64069,589.2059 451.69327,589.31106 C 451.79843,589.57395 452.11389,589.6791 452.63968,589.62652 C 452.92009,589.609 453.09535,589.39869 453.16545,588.99559 C 453.18298,588.97807 453.19174,588.96054 453.19174,588.94301 L 453.21803,587.76001 L 453.21803,587.70743 C 453.27061,587.46207 453.4371,587.29558 453.71752,587.20794 C 453.94535,587.15537 454.1469,587.19919 454.32217,587.33939 C 454.51495,587.4796 454.60258,587.74249 454.58505,588.12806 L 454.61134,588.9693 C 454.62886,589.09198 454.66392,589.2059 454.7165,589.31106 C 454.80412,589.5389 455.11959,589.64405 455.6629,589.62652 C 455.94331,589.609 456.11857,589.39869 456.18868,588.99559 C 456.2062,588.96054 456.21496,588.93425 456.21497,588.91672 L 456.21497,585.68319 C 456.17991,585.2801 456.29383,585.00845 456.55672,584.86823 C 456.80208,584.7105 457.0562,584.72803 457.3191,584.92081 C 457.49435,585.0435 457.59075,585.20123 457.60828,585.39401 L 457.60828,588.4961 C 457.64332,589.24972 457.47683,589.8456 457.10879,590.28375 C 456.68816,590.792 456.11857,591.04613 455.40001,591.04613 C 454.80412,591.0286 454.30463,590.83581 453.90154,590.46777 C 453.39329,590.92344 452.78864,591.10747 452.08761,591.01984 C 451.78966,590.98478 451.51801,590.89715 451.27265,590.75695 C 450.72935,590.47653 450.38759,590.02086 450.24738,589.38992 C 450.21233,589.26724 450.19481,589.14456 450.19481,589.02188 L 450.19481,585.60432 C 450.14223,585.30639 450.23862,585.06979 450.48398,584.89452 C 450.60667,584.8069 450.73811,584.77185 450.87832,584.78936 M 463.3255,590.23117 L 463.3255,587.5497 C 463.27292,586.72599 462.98374,586.07753 462.45797,585.60432 C 462.31776,585.48164 462.16879,585.37649 462.01106,585.28885 C 461.67806,585.1136 461.34507,585.02597 461.01208,585.02596 C 460.22341,585.02597 459.58371,585.35896 459.09299,586.02494 C 458.54968,586.83114 458.40071,587.81259 458.64608,588.9693 C 458.80381,589.70539 459.17185,590.25746 459.75021,590.6255 C 459.89042,590.71313 460.03939,590.792 460.19712,590.8621 C 460.84558,591.07241 461.44146,591.03736 461.98477,590.75695 C 462.08992,591.03736 462.30023,591.18633 462.6157,591.20386 C 462.82601,591.22138 463.00127,591.15128 463.14148,590.99355 C 463.26416,590.83581 463.3255,590.58169 463.3255,590.23117 M 460.9595,586.44557 C 461.31002,586.44557 461.58167,586.6033 461.77446,586.91877 C 461.89713,587.14661 461.94971,587.66362 461.93219,588.46981 C 461.87961,589.04817 461.67806,589.40745 461.32755,589.54766 C 461.20486,589.58271 461.03836,589.59147 460.82806,589.57395 C 460.47754,589.52137 460.23217,589.32858 460.09197,588.99559 C 460.05691,588.92549 460.03939,588.85539 460.03939,588.78528 C 459.89918,588.24198 459.89918,587.70744 460.03939,587.18166 C 460.10949,586.83114 460.3198,586.6033 460.67032,586.49814 C 460.77548,586.4631 460.87187,586.44557 460.9595,586.44557 M 464.52452,587.33939 C 464.52452,586.72599 464.70854,586.19144 465.07659,585.73577 C 465.51473,585.17494 466.15443,584.89453 466.99568,584.89452 C 468.25754,585.01721 469.03744,585.5868 469.33539,586.6033 C 469.38796,586.83114 469.42301,587.0765 469.44055,587.33939 L 469.44055,590.33632 C 469.44054,590.61674 469.3091,590.81829 469.04621,590.94097 C 468.94105,590.99355 468.84466,591.01984 468.75703,591.01984 C 468.45909,591.01984 468.25754,590.87963 468.15239,590.59921 C 468.11733,590.51158 468.09981,590.42396 468.09981,590.33632 L 468.09981,587.33939 C 468.06476,586.69093 467.69671,586.33165 466.99568,586.26154 C 466.39979,586.26155 466.04051,586.54196 465.91783,587.10279 C 465.9003,587.19042 465.89154,587.26929 465.89154,587.33939 L 465.89154,590.33632 C 465.89154,590.61674 465.75133,590.81829 465.47092,590.94097 C 465.40082,590.99355 465.31319,591.01984 465.20803,591.01984 C 464.91009,591.01984 464.69978,590.87963 464.5771,590.59921 C 464.54204,590.51158 464.52452,590.42396 464.52452,590.33632 L 464.52452,587.33939 M 471.97475,582.29192 C 472.18506,582.29193 472.36032,582.36203 472.50053,582.50223 C 472.64074,582.64245 472.70208,582.80894 472.68455,583.00172 L 472.68455,584.81565 L 473.55209,584.81565 C 473.8325,584.81566 474.04281,584.93834 474.18302,585.1837 C 474.32322,585.39402 474.32322,585.62185 474.18302,585.86721 C 474.04281,586.11258 473.8325,586.2265 473.55209,586.20897 L 472.68455,586.20897 L 472.68455,588.94301 C 472.68455,589.2059 472.72837,589.38116 472.816,589.46879 C 472.86857,589.5389 472.9562,589.58271 473.07889,589.60024 C 473.21909,589.65281 473.39435,589.64405 473.60467,589.57395 C 473.88508,589.48632 474.13044,589.54766 474.34076,589.75797 C 474.51601,589.93323 474.56859,590.16107 474.49849,590.44148 C 474.42838,590.70437 474.26188,590.87087 473.999,590.94097 L 473.49951,591.01984 C 472.72837,591.07241 472.15001,590.8621 471.76444,590.3889 C 471.44897,590.02086 471.29124,589.5389 471.29124,588.94301 L 471.29124,586.20897 L 470.87062,586.20897 C 470.5902,586.2265 470.38866,586.11258 470.26597,585.86721 C 470.12577,585.62185 470.12577,585.39402 470.26597,585.1837 C 470.38866,584.93834 470.5902,584.81566 470.87062,584.81565 L 471.29124,584.81565 L 471.29124,583.00172 C 471.29124,582.72131 471.41392,582.50224 471.65929,582.3445 C 471.76444,582.30945 471.8696,582.29193 471.97475,582.29192"
         id="text2527" />
    </g>
  </g>
</svg>
